<?xml version="1.0" encoding="utf-8"?>
<!-- Generator: Adobe Illustrator 21.0.0, SVG Export Plug-In . SVG Version: 6.00 Build 0)  -->
<svg version="1.1" id="Layer_1" xmlns="http://www.w3.org/2000/svg" xmlns:xlink="http://www.w3.org/1999/xlink" x="0px" y="0px"
	 viewBox="0 0 512 512" style="enable-background:new 0 0 512 512;" xml:space="preserve">
<g>
	<path d="M46.5,0C21.1,0,0,21.1,0,46.5v418.9C0,490.9,21.1,512,46.5,512h418.9c25.5,0,46.5-21.1,46.5-46.5V46.5
		C512,21.1,490.9,0,465.5,0H46.5z M46.5,46.5h418.9v418.9H344.7V308.4h60.4l8.7-69.8h-69.1v-45.1c0-20.4,5-34.2,34.2-34.2h37.8V96
		c-6.5-0.8-28.8-2.2-54.5-2.2c-53.6,0-90.2,32.3-90.2,92.4v52.4h-61.1v69.8H272v157.1H46.5V46.5z"/>
</g>
</svg>
